G04 #@! TF.FileFunction,Soldermask,Bot*
%FSLAX46Y46*%
G04 Gerber Fmt 4.6, Leading zero omitted, Abs format (unit mm)*
G04 Created by KiCad (PCBNEW 4.0.7) date 01/26/18 10:19:39*
%MOMM*%
%LPD*%
G01*
G04 APERTURE LIST*
%ADD10C,0.100000*%
%ADD11R,2.100000X2.100000*%
%ADD12O,2.100000X2.100000*%
G04 APERTURE END LIST*
D10*
D11*
X101600000Y-101600000D03*
D12*
X101600000Y-104140000D03*
X101600000Y-106680000D03*
X101600000Y-109220000D03*
X101600000Y-111760000D03*
X101600000Y-114300000D03*
X101600000Y-116840000D03*
X101600000Y-119380000D03*
X101600000Y-121920000D03*
X101600000Y-124460000D03*
D11*
X147320000Y-101600000D03*
D12*
X147320000Y-104140000D03*
X147320000Y-106680000D03*
X147320000Y-109220000D03*
X147320000Y-111760000D03*
X147320000Y-114300000D03*
X147320000Y-116840000D03*
X147320000Y-119380000D03*
X147320000Y-121920000D03*
X147320000Y-124460000D03*
D11*
X104140000Y-101600000D03*
D12*
X104140000Y-104140000D03*
X104140000Y-106680000D03*
X104140000Y-109220000D03*
X104140000Y-111760000D03*
X104140000Y-114300000D03*
X104140000Y-116840000D03*
X104140000Y-119380000D03*
X104140000Y-121920000D03*
X104140000Y-124460000D03*
D11*
X144780000Y-101600000D03*
D12*
X144780000Y-104140000D03*
X144780000Y-106680000D03*
X144780000Y-109220000D03*
X144780000Y-111760000D03*
X144780000Y-114300000D03*
X144780000Y-116840000D03*
X144780000Y-119380000D03*
X144780000Y-121920000D03*
X144780000Y-124460000D03*
D11*
X134620000Y-127000000D03*
D12*
X134620000Y-124460000D03*
X134620000Y-121920000D03*
X134620000Y-119380000D03*
X134620000Y-116840000D03*
X134620000Y-114300000D03*
X134620000Y-111760000D03*
X134620000Y-109220000D03*
X134620000Y-106680000D03*
X134620000Y-104140000D03*
X134620000Y-101600000D03*
X134620000Y-99060000D03*
X134620000Y-96520000D03*
X134620000Y-93980000D03*
X134620000Y-91440000D03*
X134620000Y-88900000D03*
X134620000Y-86360000D03*
X134620000Y-83820000D03*
X134620000Y-81280000D03*
X134620000Y-78740000D03*
D11*
X119380000Y-78740000D03*
D12*
X119380000Y-81280000D03*
X119380000Y-83820000D03*
X119380000Y-86360000D03*
X119380000Y-88900000D03*
X119380000Y-91440000D03*
X119380000Y-93980000D03*
X119380000Y-96520000D03*
X119380000Y-99060000D03*
X119380000Y-101600000D03*
X119380000Y-104140000D03*
X119380000Y-106680000D03*
X119380000Y-109220000D03*
X119380000Y-111760000D03*
X119380000Y-114300000D03*
X119380000Y-116840000D03*
X119380000Y-119380000D03*
X119380000Y-121920000D03*
X119380000Y-124460000D03*
X119380000Y-127000000D03*
M02*
