M48
INCH,TZ
T1C0.039
%
G90
G05
T1
X40000Y-40000
X40000Y-41000
X40000Y-42000
X40000Y-43000
X40000Y-44000
X40000Y-45000
X40000Y-46000
X40000Y-47000
X40000Y-48000
X40000Y-49000
X41000Y-40000
X41000Y-41000
X41000Y-42000
X41000Y-43000
X41000Y-44000
X41000Y-45000
X41000Y-46000
X41000Y-47000
X41000Y-48000
X41000Y-49000
X47000Y-31000
X47000Y-32000
X47000Y-33000
X47000Y-34000
X47000Y-35000
X47000Y-36000
X47000Y-37000
X47000Y-38000
X47000Y-39000
X47000Y-40000
X47000Y-41000
X47000Y-42000
X47000Y-43000
X47000Y-44000
X47000Y-45000
X47000Y-46000
X47000Y-47000
X47000Y-48000
X47000Y-49000
X47000Y-50000
X53000Y-31000
X53000Y-32000
X53000Y-33000
X53000Y-34000
X53000Y-35000
X53000Y-36000
X53000Y-37000
X53000Y-38000
X53000Y-39000
X53000Y-40000
X53000Y-41000
X53000Y-42000
X53000Y-43000
X53000Y-44000
X53000Y-45000
X53000Y-46000
X53000Y-47000
X53000Y-48000
X53000Y-49000
X53000Y-50000
X57000Y-40000
X57000Y-41000
X57000Y-42000
X57000Y-43000
X57000Y-44000
X57000Y-45000
X57000Y-46000
X57000Y-47000
X57000Y-48000
X57000Y-49000
X58000Y-40000
X58000Y-41000
X58000Y-42000
X58000Y-43000
X58000Y-44000
X58000Y-45000
X58000Y-46000
X58000Y-47000
X58000Y-48000
X58000Y-49000
T0
M30
