G04 #@! TF.FileFunction,Copper,L1,Top,Signal*
%FSLAX46Y46*%
G04 Gerber Fmt 4.6, Leading zero omitted, Abs format (unit mm)*
G04 Created by KiCad (PCBNEW 4.0.7) date 01/26/18 10:19:39*
%MOMM*%
%LPD*%
G01*
G04 APERTURE LIST*
%ADD10C,0.100000*%
%ADD11R,1.700000X1.700000*%
%ADD12O,1.700000X1.700000*%
%ADD13R,0.970000X1.270000*%
%ADD14C,0.250000*%
G04 APERTURE END LIST*
D10*
D11*
X101600000Y-101600000D03*
D12*
X101600000Y-104140000D03*
X101600000Y-106680000D03*
X101600000Y-109220000D03*
X101600000Y-111760000D03*
X101600000Y-114300000D03*
X101600000Y-116840000D03*
X101600000Y-119380000D03*
X101600000Y-121920000D03*
X101600000Y-124460000D03*
D11*
X147320000Y-101600000D03*
D12*
X147320000Y-104140000D03*
X147320000Y-106680000D03*
X147320000Y-109220000D03*
X147320000Y-111760000D03*
X147320000Y-114300000D03*
X147320000Y-116840000D03*
X147320000Y-119380000D03*
X147320000Y-121920000D03*
X147320000Y-124460000D03*
D11*
X104140000Y-101600000D03*
D12*
X104140000Y-104140000D03*
X104140000Y-106680000D03*
X104140000Y-109220000D03*
X104140000Y-111760000D03*
X104140000Y-114300000D03*
X104140000Y-116840000D03*
X104140000Y-119380000D03*
X104140000Y-121920000D03*
X104140000Y-124460000D03*
D11*
X144780000Y-101600000D03*
D12*
X144780000Y-104140000D03*
X144780000Y-106680000D03*
X144780000Y-109220000D03*
X144780000Y-111760000D03*
X144780000Y-114300000D03*
X144780000Y-116840000D03*
X144780000Y-119380000D03*
X144780000Y-121920000D03*
X144780000Y-124460000D03*
D11*
X134620000Y-127000000D03*
D12*
X134620000Y-124460000D03*
X134620000Y-121920000D03*
X134620000Y-119380000D03*
X134620000Y-116840000D03*
X134620000Y-114300000D03*
X134620000Y-111760000D03*
X134620000Y-109220000D03*
X134620000Y-106680000D03*
X134620000Y-104140000D03*
X134620000Y-101600000D03*
X134620000Y-99060000D03*
X134620000Y-96520000D03*
X134620000Y-93980000D03*
X134620000Y-91440000D03*
X134620000Y-88900000D03*
X134620000Y-86360000D03*
X134620000Y-83820000D03*
X134620000Y-81280000D03*
X134620000Y-78740000D03*
D11*
X119380000Y-78740000D03*
D12*
X119380000Y-81280000D03*
X119380000Y-83820000D03*
X119380000Y-86360000D03*
X119380000Y-88900000D03*
X119380000Y-91440000D03*
X119380000Y-93980000D03*
X119380000Y-96520000D03*
X119380000Y-99060000D03*
X119380000Y-101600000D03*
X119380000Y-104140000D03*
X119380000Y-106680000D03*
X119380000Y-109220000D03*
X119380000Y-111760000D03*
X119380000Y-114300000D03*
X119380000Y-116840000D03*
X119380000Y-119380000D03*
X119380000Y-121920000D03*
X119380000Y-124460000D03*
X119380000Y-127000000D03*
D13*
X101600000Y-95885000D03*
X102870000Y-95885000D03*
X104140000Y-95885000D03*
D14*
X101600000Y-100875000D02*
X101600000Y-101600000D01*
X101600000Y-100750000D02*
X101600000Y-100875000D01*
X101600000Y-96520000D02*
X101600000Y-100750000D01*
X101600000Y-96395000D02*
X101600000Y-96520000D01*
X101600000Y-95885000D02*
X101600000Y-96395000D01*
X100757900Y-107480800D02*
X101600000Y-106680000D01*
X99860800Y-108377900D02*
X100757900Y-107480800D01*
X99774800Y-108585700D02*
X99860800Y-108377900D01*
X99224700Y-123716200D02*
X99774800Y-108585700D01*
X99224700Y-125203800D02*
X99224700Y-123716200D01*
X99394500Y-125613700D02*
X99224700Y-125203800D01*
X100446300Y-126665500D02*
X99394500Y-125613700D01*
X100856200Y-126835300D02*
X100446300Y-126665500D01*
X118855100Y-128275100D02*
X100856200Y-126835300D01*
X119904900Y-128275100D02*
X118855100Y-128275100D01*
X119910500Y-128272800D02*
X119904900Y-128275100D01*
X120652800Y-127530500D02*
X119910500Y-128272800D01*
X120655100Y-127524900D02*
X120652800Y-127530500D01*
X120655100Y-126475100D02*
X120655100Y-127524900D01*
X120652800Y-126469500D02*
X120655100Y-126475100D01*
X119380000Y-124460000D02*
X120652800Y-126469500D01*
X100327200Y-123929500D02*
X101600000Y-121920000D01*
X100324900Y-123935100D02*
X100327200Y-123929500D01*
X100324900Y-124984900D02*
X100324900Y-123935100D01*
X100327200Y-124990500D02*
X100324900Y-124984900D01*
X101069500Y-125732800D02*
X100327200Y-124990500D01*
X101075100Y-125735100D02*
X101069500Y-125732800D01*
X103615100Y-125735100D02*
X101075100Y-125735100D01*
X104664900Y-125735100D02*
X103615100Y-125735100D01*
X104670500Y-125732800D02*
X104664900Y-125735100D01*
X105412800Y-124990500D02*
X104670500Y-125732800D01*
X105415100Y-124984900D02*
X105412800Y-124990500D01*
X118110000Y-93456100D02*
X105415100Y-124984900D01*
X118111500Y-93452400D02*
X118110000Y-93456100D01*
X118852400Y-92711500D02*
X118111500Y-93452400D01*
X118856100Y-92710000D02*
X118852400Y-92711500D01*
X119903900Y-92710000D02*
X118856100Y-92710000D01*
X134620000Y-88900000D02*
X119903900Y-92710000D01*
X103612400Y-123191500D02*
X101600000Y-124460000D01*
X103616100Y-123190000D02*
X103612400Y-123191500D01*
X104663900Y-123190000D02*
X103616100Y-123190000D01*
X104667600Y-123188500D02*
X104663900Y-123190000D01*
X105408500Y-122447600D02*
X104667600Y-123188500D01*
X105410000Y-122443900D02*
X105408500Y-122447600D01*
X118110000Y-90916100D02*
X105410000Y-122443900D01*
X118111500Y-90912400D02*
X118110000Y-90916100D01*
X118852400Y-90171500D02*
X118111500Y-90912400D01*
X118856100Y-90170000D02*
X118852400Y-90171500D01*
X119903900Y-90170000D02*
X118856100Y-90170000D01*
X134620000Y-86360000D02*
X119903900Y-90170000D01*
X148592800Y-106149500D02*
X147320000Y-104140000D01*
X148595100Y-106155100D02*
X148592800Y-106149500D01*
X149145200Y-108585700D02*
X148595100Y-106155100D01*
X149145200Y-123825700D02*
X149145200Y-108585700D01*
X149145200Y-125094300D02*
X149145200Y-123825700D01*
X149059200Y-125302100D02*
X149145200Y-125094300D01*
X148162100Y-126199200D02*
X149059200Y-125302100D01*
X147954300Y-126285200D02*
X148162100Y-126199200D01*
X145523800Y-126835300D02*
X147954300Y-126285200D01*
X144036200Y-126835300D02*
X145523800Y-126835300D01*
X135646100Y-125724900D02*
X144036200Y-126835300D01*
X135521100Y-125724900D02*
X135646100Y-125724900D01*
X135168900Y-125724900D02*
X135521100Y-125724900D01*
X135143900Y-125730000D02*
X135168900Y-125724900D01*
X134096100Y-125730000D02*
X135143900Y-125730000D01*
X134092400Y-125728500D02*
X134096100Y-125730000D01*
X119380000Y-119380000D02*
X134092400Y-125728500D01*
X146051500Y-104667600D02*
X147320000Y-106680000D01*
X146050000Y-104663900D02*
X146051500Y-104667600D01*
X146050000Y-100576000D02*
X146050000Y-104663900D01*
X135888500Y-85832400D02*
X146050000Y-100576000D01*
X135147600Y-85091500D02*
X135888500Y-85832400D01*
X135143900Y-85090000D02*
X135147600Y-85091500D01*
X134096100Y-85090000D02*
X135143900Y-85090000D01*
X134092400Y-85088500D02*
X134096100Y-85090000D01*
X120281800Y-79465000D02*
X134092400Y-85088500D01*
X120230000Y-79465000D02*
X120281800Y-79465000D01*
X120105000Y-79465000D02*
X120230000Y-79465000D01*
X119380000Y-78740000D02*
X120105000Y-79465000D01*
X146051500Y-117367600D02*
X147320000Y-119380000D01*
X146050000Y-117363900D02*
X146051500Y-117367600D01*
X146050000Y-116316100D02*
X146050000Y-117363900D01*
X146048500Y-116312400D02*
X146050000Y-116316100D01*
X145307600Y-115571500D02*
X146048500Y-116312400D01*
X145303900Y-115570000D02*
X145307600Y-115571500D01*
X144256100Y-115570000D02*
X145303900Y-115570000D01*
X144252400Y-115568500D02*
X144256100Y-115570000D01*
X143511500Y-114827600D02*
X144252400Y-115568500D01*
X143510000Y-114823900D02*
X143511500Y-114827600D01*
X135895100Y-95995100D02*
X143510000Y-114823900D01*
X135892800Y-95989500D02*
X135895100Y-95995100D01*
X134620000Y-93980000D02*
X135892800Y-95989500D01*
X146051500Y-119907600D02*
X147320000Y-121920000D01*
X146050000Y-119903900D02*
X146051500Y-119907600D01*
X146050000Y-118856100D02*
X146050000Y-119903900D01*
X146048500Y-118852400D02*
X146050000Y-118856100D01*
X145307600Y-118111500D02*
X146048500Y-118852400D01*
X145303900Y-118110000D02*
X145307600Y-118111500D01*
X144256100Y-118110000D02*
X145303900Y-118110000D01*
X144252400Y-118108500D02*
X144256100Y-118110000D01*
X143511500Y-117367600D02*
X144252400Y-118108500D01*
X143510000Y-117363900D02*
X143511500Y-117367600D01*
X135890000Y-98536100D02*
X143510000Y-117363900D01*
X135888500Y-98532400D02*
X135890000Y-98536100D01*
X135147600Y-97791500D02*
X135888500Y-98532400D01*
X135143900Y-97790000D02*
X135147600Y-97791500D01*
X134096100Y-97790000D02*
X135143900Y-97790000D01*
X119380000Y-96520000D02*
X134096100Y-97790000D01*
X145310500Y-125732800D02*
X147320000Y-124460000D01*
X145304900Y-125735100D02*
X145310500Y-125732800D01*
X144255100Y-125735100D02*
X145304900Y-125735100D01*
X144249500Y-125732800D02*
X144255100Y-125735100D01*
X143507200Y-124990500D02*
X144249500Y-125732800D01*
X135888500Y-113772400D02*
X143507200Y-124990500D01*
X135147600Y-113031500D02*
X135888500Y-113772400D01*
X135143900Y-113030000D02*
X135147600Y-113031500D01*
X134096100Y-113030000D02*
X135143900Y-113030000D01*
X134092400Y-113028500D02*
X134096100Y-113030000D01*
X133351500Y-112287600D02*
X134092400Y-113028500D01*
X120648500Y-98532400D02*
X133351500Y-112287600D01*
X119907600Y-97791500D02*
X120648500Y-98532400D01*
X119903900Y-97790000D02*
X119907600Y-97791500D01*
X118856100Y-97790000D02*
X119903900Y-97790000D01*
X118852400Y-97788500D02*
X118856100Y-97790000D01*
X118111500Y-97047600D02*
X118852400Y-97788500D01*
X118110000Y-97043900D02*
X118111500Y-97047600D01*
X118110000Y-95996100D02*
X118110000Y-97043900D01*
X118111500Y-95992400D02*
X118110000Y-95996100D01*
X119380000Y-93980000D02*
X118111500Y-95992400D01*
X104140000Y-100875000D02*
X104140000Y-101600000D01*
X104140000Y-100750000D02*
X104140000Y-100875000D01*
X104140000Y-96520000D02*
X104140000Y-100750000D01*
X104140000Y-96395000D02*
X104140000Y-96520000D01*
X104140000Y-95885000D02*
X104140000Y-96395000D01*
X105412800Y-114830500D02*
X104140000Y-116840000D01*
X105415100Y-114824900D02*
X105412800Y-114830500D01*
X118104900Y-83295100D02*
X105415100Y-114824900D01*
X118107200Y-83289500D02*
X118104900Y-83295100D01*
X119380000Y-81280000D02*
X118107200Y-83289500D01*
X105412800Y-117370500D02*
X104140000Y-119380000D01*
X105415100Y-117364900D02*
X105412800Y-117370500D01*
X118104900Y-85835100D02*
X105415100Y-117364900D01*
X118107200Y-85829500D02*
X118104900Y-85835100D01*
X119380000Y-83820000D02*
X118107200Y-85829500D01*
X105412800Y-119910500D02*
X104140000Y-121920000D01*
X105415100Y-119904900D02*
X105412800Y-119910500D01*
X118104900Y-88375100D02*
X105415100Y-119904900D01*
X118107200Y-88369500D02*
X118104900Y-88375100D01*
X119380000Y-86360000D02*
X118107200Y-88369500D01*
X146792400Y-107948500D02*
X144780000Y-106680000D01*
X146796100Y-107950000D02*
X146792400Y-107948500D01*
X147843900Y-107950000D02*
X146796100Y-107950000D01*
X147847600Y-107951500D02*
X147843900Y-107950000D01*
X148588500Y-108692400D02*
X147847600Y-107951500D01*
X148590000Y-108696100D02*
X148588500Y-108692400D01*
X148595100Y-111235100D02*
X148590000Y-108696100D01*
X148595100Y-123935100D02*
X148595100Y-111235100D01*
X148595100Y-124984900D02*
X148595100Y-123935100D01*
X148592800Y-124990500D02*
X148595100Y-124984900D01*
X147850500Y-125732800D02*
X148592800Y-124990500D01*
X147844900Y-125735100D02*
X147850500Y-125732800D01*
X145414300Y-126285200D02*
X147844900Y-125735100D01*
X144145700Y-126285200D02*
X145414300Y-126285200D01*
X135143900Y-123190000D02*
X144145700Y-126285200D01*
X134096100Y-123190000D02*
X135143900Y-123190000D01*
X134092400Y-123188500D02*
X134096100Y-123190000D01*
X119380000Y-116840000D02*
X134092400Y-123188500D01*
X143937900Y-118579200D02*
X144780000Y-119380000D01*
X143040800Y-117682100D02*
X143937900Y-118579200D01*
X136359200Y-105837900D02*
X143040800Y-117682100D01*
X135462100Y-104940800D02*
X136359200Y-105837900D01*
X134620000Y-104140000D02*
X135462100Y-104940800D01*
X143507200Y-119910500D02*
X144780000Y-121920000D01*
X135888500Y-106152400D02*
X143507200Y-119910500D01*
X135147600Y-105411500D02*
X135888500Y-106152400D01*
X135143900Y-105410000D02*
X135147600Y-105411500D01*
X134096100Y-105410000D02*
X135143900Y-105410000D01*
X134092400Y-105408500D02*
X134096100Y-105410000D01*
X133351500Y-104667600D02*
X134092400Y-105408500D01*
X133350000Y-104663900D02*
X133351500Y-104667600D01*
X133350000Y-103616100D02*
X133350000Y-104663900D01*
X133351500Y-103612400D02*
X133350000Y-103616100D01*
X134620000Y-101600000D02*
X133351500Y-103612400D01*
X143507200Y-122450500D02*
X144780000Y-124460000D01*
X135888500Y-108692400D02*
X143507200Y-122450500D01*
X135147600Y-107951500D02*
X135888500Y-108692400D01*
X135143900Y-107950000D02*
X135147600Y-107951500D01*
X134096100Y-107950000D02*
X135143900Y-107950000D01*
X134092400Y-107948500D02*
X134096100Y-107950000D01*
X133351500Y-107207600D02*
X134092400Y-107948500D01*
X133350000Y-107203900D02*
X133351500Y-107207600D01*
X132794800Y-104774300D02*
X133350000Y-107203900D01*
X132794800Y-103505700D02*
X132794800Y-104774300D01*
X133344900Y-101075100D02*
X132794800Y-103505700D01*
X133347200Y-101069500D02*
X133344900Y-101075100D01*
X134620000Y-99060000D02*
X133347200Y-101069500D01*
X104774300Y-126285200D02*
X114737500Y-122869700D01*
X103505700Y-126285200D02*
X104774300Y-126285200D01*
X100965700Y-126285200D02*
X103505700Y-126285200D01*
X100757900Y-126199200D02*
X100965700Y-126285200D01*
X99860800Y-125302100D02*
X100757900Y-126199200D01*
X99774800Y-125094300D02*
X99860800Y-125302100D01*
X99774800Y-123825700D02*
X99774800Y-125094300D01*
X100330000Y-108696100D02*
X99774800Y-123825700D01*
X100331500Y-108692400D02*
X100330000Y-108696100D01*
X101072400Y-107951500D02*
X100331500Y-108692400D01*
X101076100Y-107950000D02*
X101072400Y-107951500D01*
X102123900Y-107950000D02*
X101076100Y-107950000D01*
X102127600Y-107948500D02*
X102123900Y-107950000D01*
X102868500Y-107207600D02*
X102127600Y-107948500D01*
X102870000Y-107203900D02*
X102868500Y-107207600D01*
X102870000Y-96520000D02*
X102870000Y-107203900D01*
X102870000Y-96395000D02*
X102870000Y-96520000D01*
X102870000Y-95885000D02*
X102870000Y-96395000D01*
X118104900Y-106155100D02*
X114737500Y-122869700D01*
X118107200Y-106149500D02*
X118104900Y-106155100D01*
X119380000Y-104140000D02*
X118107200Y-106149500D01*
X119380000Y-127000000D02*
X114737500Y-122869700D01*
M02*
