G04 #@! TF.FileFunction,Copper,L2,Bot,Signal*
%FSLAX46Y46*%
G04 Gerber Fmt 4.6, Leading zero omitted, Abs format (unit mm)*
G04 Created by KiCad (PCBNEW 4.0.7) date 01/26/18 10:19:39*
%MOMM*%
%LPD*%
G01*
G04 APERTURE LIST*
%ADD10C,0.100000*%
%ADD11R,1.700000X1.700000*%
%ADD12O,1.700000X1.700000*%
%ADD13C,0.250000*%
G04 APERTURE END LIST*
D10*
D11*
X101600000Y-101600000D03*
D12*
X101600000Y-104140000D03*
X101600000Y-106680000D03*
X101600000Y-109220000D03*
X101600000Y-111760000D03*
X101600000Y-114300000D03*
X101600000Y-116840000D03*
X101600000Y-119380000D03*
X101600000Y-121920000D03*
X101600000Y-124460000D03*
D11*
X147320000Y-101600000D03*
D12*
X147320000Y-104140000D03*
X147320000Y-106680000D03*
X147320000Y-109220000D03*
X147320000Y-111760000D03*
X147320000Y-114300000D03*
X147320000Y-116840000D03*
X147320000Y-119380000D03*
X147320000Y-121920000D03*
X147320000Y-124460000D03*
D11*
X104140000Y-101600000D03*
D12*
X104140000Y-104140000D03*
X104140000Y-106680000D03*
X104140000Y-109220000D03*
X104140000Y-111760000D03*
X104140000Y-114300000D03*
X104140000Y-116840000D03*
X104140000Y-119380000D03*
X104140000Y-121920000D03*
X104140000Y-124460000D03*
D11*
X144780000Y-101600000D03*
D12*
X144780000Y-104140000D03*
X144780000Y-106680000D03*
X144780000Y-109220000D03*
X144780000Y-111760000D03*
X144780000Y-114300000D03*
X144780000Y-116840000D03*
X144780000Y-119380000D03*
X144780000Y-121920000D03*
X144780000Y-124460000D03*
D11*
X134620000Y-127000000D03*
D12*
X134620000Y-124460000D03*
X134620000Y-121920000D03*
X134620000Y-119380000D03*
X134620000Y-116840000D03*
X134620000Y-114300000D03*
X134620000Y-111760000D03*
X134620000Y-109220000D03*
X134620000Y-106680000D03*
X134620000Y-104140000D03*
X134620000Y-101600000D03*
X134620000Y-99060000D03*
X134620000Y-96520000D03*
X134620000Y-93980000D03*
X134620000Y-91440000D03*
X134620000Y-88900000D03*
X134620000Y-86360000D03*
X134620000Y-83820000D03*
X134620000Y-81280000D03*
X134620000Y-78740000D03*
D11*
X119380000Y-78740000D03*
D12*
X119380000Y-81280000D03*
X119380000Y-83820000D03*
X119380000Y-86360000D03*
X119380000Y-88900000D03*
X119380000Y-91440000D03*
X119380000Y-93980000D03*
X119380000Y-96520000D03*
X119380000Y-99060000D03*
X119380000Y-101600000D03*
X119380000Y-104140000D03*
X119380000Y-106680000D03*
X119380000Y-109220000D03*
X119380000Y-111760000D03*
X119380000Y-114300000D03*
X119380000Y-116840000D03*
X119380000Y-119380000D03*
X119380000Y-121920000D03*
X119380000Y-124460000D03*
X119380000Y-127000000D03*
D13*
X103612400Y-105408500D02*
X101600000Y-104140000D01*
X103616100Y-105410000D02*
X103612400Y-105408500D01*
X104663900Y-105410000D02*
X103616100Y-105410000D01*
X104667600Y-105411500D02*
X104663900Y-105410000D01*
X119380000Y-111760000D02*
X104667600Y-105411500D01*
X102868500Y-111232400D02*
X101600000Y-109220000D01*
X102870000Y-111236100D02*
X102868500Y-111232400D01*
X102870000Y-112283900D02*
X102870000Y-111236100D01*
X102871500Y-112287600D02*
X102870000Y-112283900D01*
X103612400Y-113028500D02*
X102871500Y-112287600D01*
X103616100Y-113030000D02*
X103612400Y-113028500D01*
X104663900Y-113030000D02*
X103616100Y-113030000D01*
X104667600Y-113031500D02*
X104663900Y-113030000D01*
X119380000Y-121920000D02*
X104667600Y-113031500D01*
X102868500Y-113772400D02*
X101600000Y-111760000D01*
X102870000Y-113776100D02*
X102868500Y-113772400D01*
X102870000Y-114823900D02*
X102870000Y-113776100D01*
X102868500Y-114827600D02*
X102870000Y-114823900D01*
X102127600Y-115568500D02*
X102868500Y-114827600D01*
X102123900Y-115570000D02*
X102127600Y-115568500D01*
X101076100Y-115570000D02*
X102123900Y-115570000D01*
X101072400Y-115568500D02*
X101076100Y-115570000D01*
X100331500Y-114827600D02*
X101072400Y-115568500D01*
X100330000Y-114823900D02*
X100331500Y-114827600D01*
X99774800Y-112394300D02*
X100330000Y-114823900D01*
X99774800Y-111125700D02*
X99774800Y-112394300D01*
X99774800Y-103505700D02*
X99774800Y-111125700D01*
X100324900Y-100573900D02*
X99774800Y-103505700D01*
X100573900Y-100324900D02*
X100324900Y-100573900D01*
X119380000Y-88900000D02*
X100573900Y-100324900D01*
X100327200Y-112290500D02*
X101600000Y-114300000D01*
X100324900Y-112284900D02*
X100327200Y-112290500D01*
X100324900Y-111235100D02*
X100324900Y-112284900D01*
X100324900Y-106155100D02*
X100324900Y-111235100D01*
X100330000Y-103616100D02*
X100324900Y-106155100D01*
X100331500Y-103612400D02*
X100330000Y-103616100D01*
X101072400Y-102871500D02*
X100331500Y-103612400D01*
X101076100Y-102870000D02*
X101072400Y-102871500D01*
X102123900Y-102870000D02*
X101076100Y-102870000D01*
X102148900Y-102875100D02*
X102123900Y-102870000D01*
X103238900Y-102875100D02*
X102148900Y-102875100D01*
X103591100Y-102875100D02*
X103238900Y-102875100D01*
X103616100Y-102870000D02*
X103591100Y-102875100D01*
X104663900Y-102870000D02*
X103616100Y-102870000D01*
X104688900Y-102875100D02*
X104663900Y-102870000D01*
X104813900Y-102875100D02*
X104688900Y-102875100D01*
X105166100Y-102875100D02*
X104813900Y-102875100D01*
X119380000Y-91440000D02*
X105166100Y-102875100D01*
X103612400Y-118108500D02*
X101600000Y-116840000D01*
X103616100Y-118110000D02*
X103612400Y-118108500D01*
X104663900Y-118110000D02*
X103616100Y-118110000D01*
X118856100Y-123190000D02*
X104663900Y-118110000D01*
X119903900Y-123190000D02*
X118856100Y-123190000D01*
X119907600Y-123188500D02*
X119903900Y-123190000D01*
X120648500Y-122447600D02*
X119907600Y-123188500D01*
X120650000Y-122443900D02*
X120648500Y-122447600D01*
X120655100Y-119904900D02*
X120650000Y-122443900D01*
X120655100Y-118855100D02*
X120655100Y-119904900D01*
X120655100Y-116315100D02*
X120655100Y-118855100D01*
X120652800Y-116309500D02*
X120655100Y-116315100D01*
X119380000Y-114300000D02*
X120652800Y-116309500D01*
X100327200Y-117370500D02*
X101600000Y-119380000D01*
X100324900Y-117364900D02*
X100327200Y-117370500D01*
X99224700Y-112503800D02*
X100324900Y-117364900D01*
X99224700Y-111016200D02*
X99224700Y-112503800D01*
X99224700Y-103396200D02*
X99224700Y-111016200D01*
X99774800Y-100346100D02*
X99224700Y-103396200D01*
X100346100Y-99774800D02*
X99774800Y-100346100D01*
X118852400Y-87631500D02*
X100346100Y-99774800D01*
X118856100Y-87630000D02*
X118852400Y-87631500D01*
X119903900Y-87630000D02*
X118856100Y-87630000D01*
X134620000Y-91440000D02*
X119903900Y-87630000D01*
X135895100Y-80755100D02*
X135926500Y-94687500D01*
X135892800Y-80749500D02*
X135895100Y-80755100D01*
X134620000Y-78740000D02*
X135892800Y-80749500D01*
X135147600Y-95248500D02*
X135926500Y-94687500D01*
X135143900Y-95250000D02*
X135147600Y-95248500D01*
X134096100Y-95250000D02*
X135143900Y-95250000D01*
X119903900Y-100330000D02*
X134096100Y-95250000D01*
X118856100Y-100330000D02*
X119903900Y-100330000D01*
X104140000Y-104140000D02*
X118856100Y-100330000D01*
X145806100Y-100324900D02*
X135926500Y-94687500D01*
X146418200Y-100875000D02*
X145806100Y-100324900D01*
X146470000Y-100875000D02*
X146418200Y-100875000D01*
X146595000Y-100875000D02*
X146470000Y-100875000D01*
X147320000Y-101600000D02*
X146595000Y-100875000D01*
X146051500Y-107207600D02*
X147320000Y-109220000D01*
X146050000Y-107203900D02*
X146051500Y-107207600D01*
X146050000Y-106156100D02*
X146050000Y-107203900D01*
X146048500Y-106152400D02*
X146050000Y-106156100D01*
X145307600Y-105411500D02*
X146048500Y-106152400D01*
X145303900Y-105410000D02*
X145307600Y-105411500D01*
X144256100Y-105410000D02*
X145303900Y-105410000D01*
X144252400Y-105408500D02*
X144256100Y-105410000D01*
X134620000Y-96520000D02*
X144252400Y-105408500D01*
X146051500Y-109747600D02*
X147320000Y-111760000D01*
X146050000Y-109743900D02*
X146051500Y-109747600D01*
X146050000Y-108696100D02*
X146050000Y-109743900D01*
X146048500Y-108692400D02*
X146050000Y-108696100D01*
X145307600Y-107951500D02*
X146048500Y-108692400D01*
X145303900Y-107950000D02*
X145307600Y-107951500D01*
X144256100Y-107950000D02*
X145303900Y-107950000D01*
X134620000Y-106680000D02*
X144256100Y-107950000D01*
X145307600Y-113031500D02*
X147320000Y-114300000D01*
X145303900Y-113030000D02*
X145307600Y-113031500D01*
X144256100Y-113030000D02*
X145303900Y-113030000D01*
X144252400Y-113031500D02*
X144256100Y-113030000D01*
X135147600Y-120648500D02*
X144252400Y-113031500D01*
X135143900Y-120650000D02*
X135147600Y-120648500D01*
X134096100Y-120650000D02*
X135143900Y-120650000D01*
X134092400Y-120648500D02*
X134096100Y-120650000D01*
X119380000Y-106680000D02*
X134092400Y-120648500D01*
X145307600Y-115571500D02*
X147320000Y-116840000D01*
X145303900Y-115570000D02*
X145307600Y-115571500D01*
X144256100Y-115570000D02*
X145303900Y-115570000D01*
X144252400Y-115571500D02*
X144256100Y-115570000D01*
X135147600Y-123188500D02*
X144252400Y-115571500D01*
X135143900Y-123190000D02*
X135147600Y-123188500D01*
X134096100Y-123190000D02*
X135143900Y-123190000D01*
X134092400Y-123188500D02*
X134096100Y-123190000D01*
X119380000Y-109220000D02*
X134092400Y-123188500D01*
X118856100Y-113030000D02*
X104140000Y-111760000D01*
X119903900Y-113030000D02*
X118856100Y-113030000D01*
X119907600Y-113031500D02*
X119903900Y-113030000D01*
X133718200Y-126275000D02*
X119907600Y-113031500D01*
X133770000Y-126275000D02*
X133718200Y-126275000D01*
X133895000Y-126275000D02*
X133770000Y-126275000D01*
X134620000Y-127000000D02*
X133895000Y-126275000D01*
X134620000Y-116840000D02*
X144780000Y-109220000D01*
X134620000Y-119380000D02*
X144780000Y-111760000D01*
X134620000Y-121920000D02*
X144780000Y-114300000D01*
X134620000Y-124460000D02*
X144780000Y-116840000D01*
M02*
